<svg baseProfile="tiny" xmlns="http://www.w3.org/2000/svg" width="51.261" height="56.312" viewBox="0 0 51.261 56.312"><path fill="#fff" d="M49.82 45.585l-7.438-9.11c2.604-3.756 4.136-8.31 4.136-13.217C46.518 10.433 36.083 0 23.258 0S0 10.433 0 23.258c0 12.824 10.434 23.26 23.26 23.26 3.112 0 6.082-.62 8.798-1.734l7.5 9.184c1.217 1.49 3.02 2.345 4.952 2.345.2 0 .4-.01.6-.028 1.268-.115 2.46-.604 3.447-1.408l.358-.293c1.318-1.076 2.14-2.607 2.312-4.31.172-1.706-.328-3.372-1.406-4.69zM3.5 23.258C3.5 12.362 12.364 3.5 23.26 3.5s19.758 8.862 19.758 19.758c0 10.895-8.864 19.76-19.76 19.76S3.5 34.152 3.5 23.258zm44.208 26.656c-.076.762-.44 1.447-1.03 1.928l-.358.293c-.436.357-.966.574-1.533.627-.09.008-.178.012-.267.012-.87 0-1.678-.38-2.22-1.045l-7.004-8.577c1.77-1.074 3.384-2.385 4.805-3.878l6.984 8.548c.48.588.7 1.33.624 2.09z"/></svg>