<svg width="249" height="248" viewBox="0 0 249 248" fill="none" xmlns="http://www.w3.org/2000/svg">
<g clip-path="url(#clip0_15_9)">
<path d="M249 0H0.18512V191.015H249V0Z" fill="#212E5A"/>
<path d="M249 191.015H0V247.732H249V191.015Z" fill="#DEC388"/>
<path d="M15.6996 30.02H36.5924C52.5327 30.02 64.4832 41.8965 64.4832 58.8921C64.4832 75.8877 52.5327 87.7642 36.5924 87.7642H15.6996V30.02ZM36.1851 77.2299C47.1637 77.2299 52.8474 69.7504 52.8474 58.8551C52.8474 47.9597 47.1544 40.4802 36.1851 40.4802H26.8356V77.2299H36.1851Z" fill="white"/>
<path d="M76.0358 66.6123C76.0358 51.9772 86.5238 44.6643 96.4008 44.6643C103.964 44.6643 108.842 48.8114 109.897 51.1441H110.147V45.4511H121.043V87.7457H110.11V82.0527H109.86C108.805 84.4039 103.927 88.5325 96.3638 88.5325C86.5238 88.5695 76.0358 81.2566 76.0358 66.6123ZM98.5577 78.8128C104.658 78.8128 110.351 74.5824 110.351 66.6123C110.351 58.6421 104.658 54.421 98.5577 54.421C92.4574 54.421 86.7737 58.7255 86.7737 66.6123C86.7737 74.4991 92.4574 78.8128 98.5577 78.8128V78.8128Z" fill="white"/>
<path d="M142.879 54.9857H122.625V45.4697H160.329L137.714 78.1649H166.086V87.7642H120.274L142.879 54.9857Z" fill="white"/>
<path d="M76.3042 110.962C76.3042 96.3175 86.7922 89.0046 96.6693 89.0046C104.232 89.0046 109.11 93.1517 110.166 95.4844H110.342V89.7822H121.237V132.077H110.342V126.402H110.092C109.036 128.763 104.158 132.882 96.5952 132.882C86.7922 132.882 76.3042 125.597 76.3042 110.962ZM98.8261 123.153C104.926 123.153 110.619 118.932 110.619 110.962C110.619 102.992 104.926 98.7613 98.8261 98.7613C92.7258 98.7613 87.0421 103.075 87.0421 110.962C87.0421 118.849 92.7536 123.153 98.8261 123.153Z" fill="#DEC388"/>
<path d="M188.22 110.962C188.22 96.6415 199.448 89.0046 210.501 89.0046C221.553 89.0046 232.782 96.6415 232.782 110.962C232.782 125.282 221.479 132.882 210.501 132.882C199.522 132.882 188.22 125.273 188.22 110.962ZM210.501 123.079C216.601 123.079 221.97 118.525 221.97 110.962C221.97 103.399 216.601 98.8446 210.501 98.8446C204.401 98.8446 198.957 103.399 198.957 110.962C198.957 118.525 204.41 123.079 210.501 123.079V123.079Z" fill="#DEC388"/>
<path d="M65.0571 92.55C65.0571 93.6238 65.1497 111.064 65.1497 111.064C72.6848 108.999 76.0358 103.556 76.0358 93.5867V45.4511H65.0571V92.55Z" fill="white"/>
<path d="M76.0358 30.02H65.0571V39.6193H76.0358V30.02Z" fill="white"/>
<path d="M190.71 89.0046C179.851 89.0046 168.863 96.4101 168.493 110.194V132.095H179.176V110.194C179.537 103.094 184.804 98.8446 190.691 98.8446V89.0046H190.71Z" fill="#DEC388"/>
<path d="M166.336 133.428V89.81H155.422V95.5122H154.941C153.886 93.1517 149.165 89.0324 141.685 89.0324C131.929 89.0324 121.32 96.3453 121.32 110.99C121.32 125.634 131.892 132.947 141.685 132.947C149.165 132.947 153.886 128.8 154.941 126.467H155.422V129.716V133.484C155.401 135 155.08 136.496 154.479 137.888C153.878 139.28 153.008 140.539 151.92 141.595C150.831 142.65 149.545 143.48 148.135 144.037C146.725 144.594 145.219 144.868 143.703 144.842V144.842V154.682C154.756 154.682 165.92 147.276 166.336 133.493V133.428ZM143.879 123.153C137.779 123.153 132.086 118.849 132.086 110.962C132.086 103.075 137.779 98.7614 143.879 98.7614C149.979 98.7614 155.7 102.992 155.7 110.962C155.7 118.932 150.063 123.153 143.879 123.153V123.153Z" fill="#DEC388"/>
<path d="M17.0049 152.951V148.063H16.144V147.406H17.0049V145.703H17.7732V147.406H19.0691V148.063H17.7732V152.784C17.761 152.876 17.7701 152.969 17.7997 153.057C17.8294 153.144 17.8788 153.224 17.9442 153.289C18.0095 153.354 18.0891 153.404 18.1766 153.434C18.2641 153.463 18.3573 153.472 18.4489 153.46C18.656 153.456 18.8603 153.412 19.0506 153.33V153.969C18.8166 154.11 18.5458 154.178 18.2731 154.164C18.1059 154.187 17.9358 154.172 17.7752 154.12C17.6147 154.068 17.468 153.98 17.3461 153.864C17.2242 153.747 17.1302 153.604 17.0711 153.446C17.012 153.288 16.9893 153.119 17.0049 152.951V152.951Z" fill="white"/>
<path d="M20.4391 144.972H21.226V148.619C21.4474 148.203 21.7828 147.86 22.1928 147.629C22.6027 147.398 23.0702 147.288 23.5402 147.314C23.9117 147.298 24.2821 147.364 24.6254 147.507C24.9688 147.65 25.2768 147.866 25.528 148.14C25.7792 148.414 25.9676 148.74 26.0799 149.094C26.1922 149.449 26.2259 149.824 26.1784 150.192V154.127H25.4008V150.285C25.4435 149.993 25.421 149.695 25.3351 149.413C25.2491 149.131 25.1017 148.871 24.9035 148.653C24.7053 148.434 24.4612 148.262 24.1887 148.149C23.9162 148.036 23.622 147.984 23.3273 147.999C23.0351 147.986 22.7438 148.037 22.4731 148.148C22.2025 148.258 21.959 148.426 21.7594 148.64C21.5598 148.854 21.4088 149.108 21.3167 149.386C21.2246 149.663 21.1937 149.957 21.226 150.248V154.09H20.4391V144.972Z" fill="white"/>
<path d="M27.4744 150.739C27.449 150.291 27.5159 149.842 27.6709 149.421C27.826 149 28.0658 148.615 28.3757 148.291C28.6855 147.966 29.0587 147.709 29.4721 147.534C29.8855 147.36 30.3304 147.272 30.7791 147.276C31.2493 147.269 31.7153 147.366 32.1437 147.56C32.5721 147.754 32.9522 148.041 33.2566 148.399C33.5611 148.757 33.7824 149.179 33.9046 149.633C34.0268 150.087 34.0469 150.563 33.9634 151.026H28.2242C28.237 151.374 28.3197 151.716 28.4673 152.032C28.6149 152.347 28.8244 152.63 29.0835 152.863C29.3425 153.096 29.6458 153.275 29.9752 153.389C30.3046 153.502 30.6535 153.549 31.0012 153.525C31.4003 153.532 31.7963 153.453 32.1621 153.293C32.5279 153.133 32.855 152.897 33.121 152.599L33.5283 153.025C33.0649 153.55 32.4522 153.92 31.7724 154.087C31.0926 154.253 30.3781 154.208 29.7246 153.957C29.0711 153.707 28.5098 153.262 28.1159 152.684C27.722 152.105 27.5143 151.42 27.5206 150.72L27.4744 150.739ZM33.2506 150.396C33.2559 150.072 33.1951 149.751 33.0722 149.451C32.9492 149.151 32.7666 148.88 32.5354 148.653C32.3042 148.426 32.0293 148.249 31.7273 148.131C31.4254 148.014 31.1028 147.959 30.7791 147.971C30.1206 147.961 29.4844 148.209 29.0069 148.662C28.5293 149.116 28.2483 149.738 28.2242 150.396H33.2506Z" fill="white"/>
<path d="M38.6011 152.951V148.063H37.7402V147.406H38.6011V145.703H39.3879V147.406H40.6839V148.063H39.3879V152.784C39.3741 152.875 39.3817 152.968 39.4102 153.056C39.4386 153.144 39.4871 153.224 39.5518 153.289C39.6165 153.355 39.6957 153.404 39.7829 153.434C39.8701 153.464 39.9631 153.473 40.0544 153.46C40.2617 153.458 40.4664 153.414 40.6561 153.33V153.969C40.4254 154.11 40.1576 154.178 39.8878 154.164C39.7195 154.188 39.548 154.174 39.386 154.123C39.2239 154.071 39.0755 153.984 38.9518 153.868C38.8282 153.751 38.7324 153.608 38.6716 153.449C38.6109 153.291 38.5868 153.12 38.6011 152.951V152.951Z" fill="white"/>
<path d="M42.0447 147.406H42.8223V148.961C42.9367 148.474 43.2153 148.04 43.6114 147.733C44.0074 147.427 44.4968 147.265 44.9976 147.276C45.1136 147.273 45.2293 147.288 45.3401 147.323V148.054C45.232 148.022 45.1197 148.006 45.0069 148.008C44.6926 148.018 44.3839 148.094 44.1003 148.23C43.8167 148.366 43.5643 148.559 43.3591 148.798C43.1538 149.036 43.0002 149.314 42.9078 149.615C42.8154 149.915 42.7863 150.232 42.8223 150.544V154.09H42.0447V147.406Z" fill="white"/>
<path d="M46.1269 150.748C46.0987 150.298 46.1639 149.847 46.3184 149.424C46.4729 149 46.7134 148.613 47.0246 148.287C47.3359 147.961 47.7112 147.703 48.127 147.529C48.5428 147.355 48.9901 147.269 49.4408 147.276C49.9868 147.257 50.5271 147.393 50.999 147.668C51.4709 147.943 51.855 148.347 52.1068 148.832V148.832V147.406H52.9492V154.09H52.1623V152.664C51.901 153.15 51.5055 153.55 51.023 153.818C50.5405 154.085 49.9913 154.209 49.4408 154.173C48.9942 154.18 48.551 154.095 48.1385 153.924C47.726 153.753 47.3529 153.499 47.0424 153.178C46.7318 152.857 46.4903 152.476 46.3329 152.058C46.1754 151.64 46.1053 151.194 46.1269 150.748V150.748ZM49.5426 153.525C50.097 153.553 50.6469 153.414 51.1215 153.126C51.596 152.838 51.9735 152.415 52.2051 151.91C52.4368 151.406 52.512 150.844 52.421 150.296C52.33 149.749 52.0771 149.241 51.6949 148.839C51.3126 148.436 50.8185 148.158 50.2764 148.039C49.7342 147.92 49.1689 147.966 48.6533 148.172C48.1378 148.377 47.6956 148.732 47.3838 149.192C47.0721 149.651 46.9051 150.193 46.9044 150.748C46.8812 151.105 46.9327 151.464 47.0556 151.801C47.1784 152.137 47.3701 152.445 47.6182 152.703C47.8663 152.962 48.1656 153.166 48.4969 153.303C48.8282 153.439 49.1843 153.506 49.5426 153.497V153.525Z" fill="white"/>
<path d="M60.2436 154.09V152.664C59.9854 153.14 59.5985 153.534 59.1271 153.801C58.6557 154.068 58.1187 154.197 57.5776 154.173C56.6891 154.127 55.8522 153.742 55.2396 153.097C54.627 152.451 54.2855 151.596 54.2855 150.706C54.2855 149.817 54.627 148.961 55.2396 148.316C55.8522 147.671 56.6891 147.285 57.5776 147.239C58.1233 147.221 58.6632 147.357 59.1349 147.633C59.6066 147.908 59.9909 148.311 60.2436 148.795V148.795V144.934H61.0304V154.052L60.2436 154.09ZM57.6424 153.497C58.1967 153.525 58.7466 153.386 59.2212 153.098C59.6958 152.81 60.0732 152.387 60.3049 151.882C60.5365 151.378 60.6117 150.816 60.5207 150.268C60.4298 149.721 60.1769 149.213 59.7946 148.811C59.4123 148.408 58.9183 148.13 58.3761 148.011C57.834 147.892 57.2687 147.938 56.7531 148.144C56.2375 148.349 55.7953 148.705 55.4836 149.164C55.1719 149.623 55.0049 150.165 55.0042 150.72C54.9769 151.08 55.0254 151.442 55.1464 151.782C55.2675 152.122 55.4585 152.432 55.707 152.694C55.9556 152.956 56.2563 153.162 56.5896 153.301C56.9229 153.439 57.2816 153.506 57.6424 153.497V153.497Z" fill="white"/>
<path d="M62.3263 150.739C62.301 150.291 62.3677 149.844 62.5221 149.423C62.6766 149.003 62.9157 148.618 63.2245 148.294C63.5333 147.97 63.9054 147.712 64.3177 147.537C64.73 147.362 65.1739 147.273 65.6218 147.276C66.0925 147.267 66.5594 147.363 66.9886 147.557C67.4178 147.75 67.7986 148.037 68.1034 148.396C68.4082 148.754 68.6294 149.176 68.7509 149.631C68.8725 150.086 68.8913 150.562 68.8061 151.026H63.0669C63.081 151.373 63.1645 151.715 63.3125 152.03C63.4606 152.345 63.6701 152.627 63.9289 152.86C64.1877 153.093 64.4904 153.272 64.8193 153.386C65.1482 153.5 65.4966 153.547 65.844 153.525C66.242 153.534 66.6374 153.456 67.0021 153.296C67.3667 153.137 67.6919 152.898 67.9545 152.599L68.3711 153.025C68.0426 153.403 67.6333 153.703 67.1734 153.901C66.7136 154.1 66.2149 154.193 65.7144 154.173C65.2619 154.186 64.8116 154.106 64.3916 153.937C63.9715 153.769 63.5907 153.515 63.2728 153.193C62.955 152.871 62.7069 152.487 62.544 152.064C62.3812 151.642 62.3071 151.191 62.3263 150.739V150.739ZM68.1026 150.396C68.1066 150.072 68.0447 149.75 67.9207 149.45C67.7967 149.151 67.6132 148.879 67.3813 148.652C67.1494 148.426 66.8738 148.248 66.5714 148.131C66.269 148.014 65.9459 147.959 65.6218 147.971C64.9634 147.961 64.3272 148.209 63.8496 148.662C63.372 149.116 63.091 149.738 63.0669 150.396H68.1026Z" fill="white"/>
<path d="M69.5375 152.442L70.2132 152.247C70.2855 152.618 70.4872 152.951 70.7822 153.187C71.0773 153.422 71.4465 153.545 71.8239 153.534C72.5367 153.534 73.2587 153.173 73.2587 152.34C73.2587 151.655 72.7959 151.349 71.9257 150.979L71.4074 150.776C70.3058 150.322 69.8615 149.683 69.8615 148.924C69.8716 148.685 69.9306 148.45 70.0347 148.234C70.1389 148.018 70.2861 147.826 70.4673 147.669C70.6485 147.512 70.8598 147.394 71.0883 147.322C71.3168 147.249 71.5577 147.225 71.7961 147.249C72.2383 147.223 72.676 147.348 73.0377 147.604C73.3993 147.859 73.6633 148.23 73.7864 148.656L73.1569 148.859C73.0676 148.58 72.8885 148.338 72.6475 148.17C72.4065 148.003 72.117 147.92 71.8239 147.934C71.1759 147.934 70.6298 148.267 70.6298 148.933C70.6298 149.433 70.9353 149.813 71.7221 150.137L72.1664 150.322C73.3235 150.794 74.0178 151.248 74.0178 152.321C74.0035 152.593 73.9333 152.858 73.8117 153.101C73.6901 153.343 73.5197 153.558 73.3111 153.732C73.1025 153.906 72.8603 154.035 72.5996 154.111C72.3389 154.186 72.0654 154.208 71.7961 154.173C71.2733 154.21 70.755 154.054 70.339 153.735C69.9229 153.416 69.6379 152.956 69.5375 152.442Z" fill="white"/>
<path d="M75.3415 144.972H76.0913V148.619C76.3136 148.204 76.6492 147.861 77.0589 147.63C77.4687 147.399 77.9357 147.289 78.4055 147.314C78.7774 147.299 79.148 147.365 79.4917 147.507C79.8354 147.65 80.144 147.866 80.3959 148.14C80.6478 148.414 80.837 148.739 80.9505 149.094C81.064 149.448 81.0989 149.823 81.053 150.192V154.127H80.2661V150.285C80.3044 149.996 80.2788 149.703 80.1913 149.425C80.1037 149.148 79.9563 148.893 79.7595 148.678C79.5626 148.464 79.3211 148.295 79.052 148.184C78.7829 148.073 78.4927 148.022 78.2019 148.036C77.9124 148.022 77.6235 148.071 77.3546 148.179C77.0857 148.287 76.843 148.452 76.643 148.661C76.443 148.871 76.2903 149.121 76.1951 149.395C76.0999 149.669 76.0645 149.959 76.0913 150.248V154.09H75.3137L75.3415 144.972Z" fill="white"/>
<path d="M82.3675 150.748C82.3638 150.066 82.5626 149.398 82.9388 148.83C83.3149 148.261 83.8514 147.817 84.4803 147.553C85.1092 147.29 85.8022 147.219 86.4714 147.35C87.1406 147.48 87.7559 147.807 88.2393 148.288C88.7228 148.769 89.0526 149.382 89.187 150.051C89.3213 150.719 89.2542 151.412 88.9942 152.043C88.7341 152.673 88.2927 153.212 87.726 153.591C87.1594 153.97 86.4929 154.173 85.811 154.173C85.358 154.182 84.9078 154.099 84.4873 153.93C84.0667 153.762 83.6845 153.51 83.3632 153.19C83.0419 152.871 82.7882 152.49 82.6171 152.07C82.4461 151.651 82.3612 151.201 82.3675 150.748V150.748ZM85.811 153.525C86.3647 153.549 86.913 153.407 87.3852 153.116C87.8575 152.826 88.2321 152.401 88.4608 151.897C88.6896 151.392 88.762 150.83 88.6689 150.284C88.5757 149.737 88.3212 149.231 87.938 148.831C87.5549 148.43 87.0606 148.154 86.5189 148.036C85.9772 147.919 85.4128 147.966 84.8983 148.173C84.3838 148.379 83.9428 148.734 83.632 149.193C83.3212 149.652 83.1548 150.194 83.1543 150.748C83.1365 151.106 83.1924 151.463 83.3184 151.799C83.4444 152.134 83.6379 152.44 83.8869 152.698C84.1359 152.956 84.4352 153.16 84.7661 153.297C85.0971 153.435 85.4527 153.503 85.811 153.497V153.525Z" fill="white"/>
<path d="M95.29 148.369L92.9851 154.09H92.2538L89.7174 147.406H90.5135L92.6241 153.071L94.9012 147.406H95.6696L97.9467 153.071L100.067 147.406H100.853L98.3078 154.09H97.5765L95.29 148.369Z" fill="white"/>
<path d="M18.958 159.403C19.3706 159.386 19.7809 159.472 20.1522 159.653V161.004C19.9172 160.898 19.6599 160.85 19.4024 160.866C19.2696 160.858 19.1369 160.88 19.0132 160.929C18.8895 160.977 18.7777 161.052 18.6855 161.148C18.5933 161.243 18.5228 161.358 18.4788 161.483C18.4347 161.609 18.4182 161.742 18.4304 161.875V162.124H20.1522V163.495H18.4304V168.799H16.7086V163.495H15.857V162.124H16.7086V161.68C16.6703 161.374 16.7018 161.064 16.8008 160.772C16.8999 160.48 17.0639 160.215 17.2804 159.995C17.497 159.776 17.7605 159.609 18.0511 159.506C18.3417 159.404 18.6518 159.368 18.958 159.403V159.403Z" fill="white"/>
<path d="M21.1612 165.457C21.1508 164.995 21.235 164.535 21.4088 164.107C21.5826 163.678 21.8423 163.29 22.1718 162.966C22.5013 162.641 22.8937 162.388 23.3249 162.221C23.756 162.054 24.2168 161.977 24.6788 161.995C25.3637 162.004 26.0306 162.216 26.5955 162.603C27.1605 162.99 27.5982 163.536 27.8536 164.172C28.1089 164.807 28.1706 165.504 28.0307 166.175C27.8908 166.845 27.5557 167.459 27.0675 167.94C26.5793 168.42 25.9599 168.746 25.2872 168.875C24.6145 169.004 23.9187 168.931 23.2872 168.666C22.6558 168.4 22.117 167.954 21.7387 167.383C21.3604 166.812 21.1594 166.142 21.1612 165.457V165.457ZM24.6788 167.373C25.0603 167.386 25.4369 167.285 25.7604 167.082C26.084 166.88 26.3396 166.585 26.4946 166.236C26.6496 165.887 26.697 165.5 26.6305 165.124C26.5641 164.749 26.3869 164.401 26.1216 164.127C25.8564 163.852 25.5153 163.663 25.1419 163.584C24.7685 163.504 24.38 163.538 24.0261 163.681C23.6722 163.824 23.369 164.07 23.1554 164.386C22.9419 164.702 22.8277 165.075 22.8274 165.457C22.8187 165.705 22.8602 165.953 22.9493 166.185C23.0385 166.417 23.1734 166.629 23.3462 166.808C23.519 166.987 23.7261 167.129 23.955 167.226C24.184 167.323 24.4301 167.373 24.6788 167.373V167.373Z" fill="white"/>
<path d="M29.8071 162.124H31.5288V163.855C31.592 163.345 31.8395 162.875 32.2247 162.534C32.61 162.193 33.1065 162.005 33.6209 162.004C33.7703 162.002 33.9195 162.017 34.0652 162.05V163.698C33.9205 163.684 33.7748 163.684 33.6301 163.698C33.3401 163.688 33.0512 163.739 32.7827 163.849C32.5143 163.959 32.2725 164.126 32.0735 164.337C31.8745 164.548 31.723 164.8 31.629 165.074C31.5351 165.349 31.5009 165.64 31.5288 165.929V168.845H29.8071V162.124Z" fill="white"/>
<path d="M38.2956 165.457C38.2639 165.015 38.3233 164.572 38.4702 164.154C38.6171 163.736 38.8484 163.353 39.1496 163.028C39.4509 162.703 39.8156 162.444 40.2213 162.266C40.627 162.089 41.0648 161.996 41.5077 161.995C41.9213 161.967 42.335 162.047 42.7083 162.227C43.0816 162.407 43.4016 162.681 43.6368 163.022V163.022V162.097H45.3586V168.771H43.6923V167.845C43.4558 168.185 43.1356 168.458 42.7627 168.638C42.3897 168.818 41.9766 168.899 41.5633 168.873C41.1202 168.877 40.681 168.791 40.2728 168.619C39.8645 168.447 39.4958 168.193 39.1896 167.873C38.8833 167.552 38.646 167.173 38.4922 166.757C38.3384 166.342 38.2715 165.899 38.2956 165.457V165.457ZM41.841 167.382C42.2246 167.397 42.6039 167.297 42.9301 167.094C43.2563 166.892 43.5146 166.597 43.6717 166.246C43.8289 165.896 43.8777 165.507 43.812 165.129C43.7463 164.75 43.569 164.401 43.3029 164.124C43.0368 163.847 42.6941 163.656 42.3187 163.576C41.9434 163.495 41.5525 163.529 41.1963 163.672C40.8402 163.815 40.535 164.062 40.3199 164.38C40.1049 164.698 39.9899 165.073 39.9896 165.457C39.9796 165.706 40.0201 165.955 40.1087 166.188C40.1972 166.421 40.332 166.634 40.505 166.814C40.6779 166.994 40.8854 167.137 41.1149 167.235C41.3445 167.332 41.5915 167.383 41.841 167.382V167.382Z" fill="white"/>
<path d="M48.6262 171.057V169.66C49.1303 169.916 49.6901 170.043 50.2554 170.03C51.5421 170.03 52.366 169.428 52.366 168.41V167.901H52.2919C52.0589 168.242 51.7406 168.516 51.3688 168.697C50.9969 168.877 50.5844 168.957 50.1721 168.928C49.3063 168.851 48.5008 168.452 47.9141 167.81C47.3275 167.169 47.0021 166.331 47.0021 165.462C47.0021 164.592 47.3275 163.754 47.9141 163.113C48.5008 162.471 49.3063 162.072 50.1721 161.995C50.5817 161.967 50.9914 162.047 51.3602 162.228C51.729 162.408 52.044 162.682 52.2734 163.022H52.3475V162.097H54.0693V168.271C54.0693 170.826 52.0605 171.437 50.5517 171.437C49.8882 171.473 49.2262 171.343 48.6262 171.057V171.057ZM50.5424 167.355C50.926 167.369 51.3053 167.269 51.6315 167.067C51.9577 166.864 52.216 166.569 52.3732 166.219C52.5303 165.868 52.5792 165.479 52.5135 165.101C52.4477 164.723 52.2705 164.373 52.0044 164.096C51.7383 163.819 51.3955 163.628 51.0202 163.548C50.6448 163.467 50.2539 163.501 49.8978 163.644C49.5416 163.788 49.2364 164.034 49.0214 164.352C48.8064 164.67 48.6913 165.045 48.691 165.429C48.6772 165.681 48.7148 165.932 48.8016 166.169C48.8884 166.405 49.0226 166.622 49.1959 166.805C49.3692 166.987 49.5781 167.133 49.8096 167.232C50.0411 167.332 50.2905 167.383 50.5424 167.382V167.355Z" fill="white"/>
<path d="M55.9947 162.124H57.7165V163.855C57.7796 163.345 58.0271 162.875 58.4123 162.534C58.7976 162.193 59.2941 162.005 59.8085 162.004C59.961 162.001 60.1134 162.016 60.2621 162.05V163.698C60.1143 163.684 59.9656 163.684 59.8178 163.698C59.5278 163.688 59.2388 163.739 58.9704 163.849C58.7019 163.959 58.4601 164.126 58.2611 164.337C58.0621 164.548 57.9106 164.8 57.8167 165.074C57.7227 165.349 57.6886 165.64 57.7165 165.929V168.845H55.9947V162.124Z" fill="white"/>
<path d="M61.3266 165.457C61.3175 164.759 61.5159 164.075 61.8968 163.49C62.2777 162.906 62.8238 162.448 63.4657 162.174C64.1076 161.901 64.8163 161.825 65.5017 161.955C66.1871 162.086 66.8182 162.417 67.3147 162.907C67.8113 163.397 68.151 164.024 68.2905 164.707C68.43 165.391 68.3631 166.1 68.0983 166.746C67.8335 167.391 67.3827 167.943 66.8032 168.332C66.2238 168.721 65.5419 168.928 64.8442 168.928C64.3814 168.946 63.9199 168.869 63.4881 168.701C63.0563 168.534 62.6635 168.28 62.3338 167.954C62.0041 167.629 61.7447 167.239 61.5715 166.81C61.3982 166.38 61.3149 165.92 61.3266 165.457V165.457ZM64.8442 167.373C65.2257 167.386 65.6024 167.285 65.9259 167.082C66.2494 166.88 66.5051 166.585 66.6601 166.236C66.8151 165.887 66.8624 165.5 66.7959 165.124C66.7295 164.749 66.5523 164.401 66.2871 164.127C66.0219 163.852 65.6807 163.663 65.3074 163.584C64.934 163.504 64.5454 163.538 64.1915 163.681C63.8376 163.824 63.5344 164.07 63.3209 164.386C63.1073 164.702 62.9931 165.075 62.9929 165.457C62.9774 165.707 63.0141 165.958 63.1008 166.193C63.1875 166.428 63.3222 166.643 63.4964 166.823C63.6705 167.003 63.8803 167.145 64.1124 167.24C64.3444 167.335 64.5937 167.38 64.8442 167.373V167.373Z" fill="white"/>
<path d="M69.8707 164.55H73.8512V165.985H69.8707V164.55Z" fill="white"/>
<path d="M78.3315 159.403C78.7441 159.386 79.1546 159.472 79.5256 159.653V161.004C79.2906 160.898 79.0333 160.85 78.7758 160.866C78.6431 160.858 78.5104 160.88 78.3867 160.929C78.263 160.977 78.1512 161.052 78.059 161.148C77.9668 161.243 77.8962 161.358 77.8522 161.483C77.8082 161.609 77.7917 161.742 77.8039 161.875V162.124H79.5256V163.495H77.8039V168.799H76.0913V163.495H75.249V162.124H76.0913V161.68C76.0532 161.375 76.0846 161.066 76.1832 160.775C76.2817 160.484 76.4448 160.219 76.6603 159.999C76.8758 159.78 77.1381 159.613 77.4275 159.51C77.717 159.406 78.026 159.37 78.3315 159.403V159.403Z" fill="white"/>
<path d="M80.5346 165.457C80.5254 164.759 80.7239 164.075 81.1048 163.49C81.4857 162.906 82.0318 162.448 82.6737 162.174C83.3156 161.901 84.0243 161.825 84.7096 161.955C85.395 162.086 86.0261 162.417 86.5227 162.907C87.0193 163.397 87.3589 164.024 87.4985 164.707C87.638 165.391 87.5711 166.1 87.3062 166.746C87.0414 167.391 86.5906 167.943 86.0112 168.332C85.4318 168.721 84.7499 168.928 84.0522 168.928C83.5897 168.945 83.1288 168.867 82.6976 168.699C82.2664 168.531 81.8741 168.276 81.5447 167.951C81.2154 167.626 80.9559 167.237 80.7822 166.808C80.6085 166.379 80.5242 165.92 80.5346 165.457V165.457ZM84.0522 167.373C84.4337 167.386 84.8103 167.285 85.1338 167.082C85.4574 166.88 85.713 166.585 85.868 166.236C86.023 165.887 86.0704 165.5 86.0039 165.124C85.9375 164.749 85.7603 164.401 85.495 164.127C85.2298 163.852 84.8887 163.663 84.5153 163.584C84.142 163.504 83.7534 163.538 83.3995 163.681C83.0456 163.824 82.7424 164.07 82.5288 164.386C82.3153 164.702 82.2011 165.075 82.2008 165.457C82.1921 165.705 82.2336 165.953 82.3227 166.185C82.4119 166.417 82.5469 166.629 82.7196 166.808C82.8924 166.987 83.0995 167.129 83.3284 167.226C83.5574 167.323 83.8035 167.373 84.0522 167.373V167.373Z" fill="white"/>
<path d="M88.838 165.457C88.8288 164.759 89.0273 164.075 89.4082 163.49C89.7891 162.906 90.3352 162.448 90.9771 162.174C91.619 161.901 92.3277 161.825 93.0131 161.955C93.6984 162.086 94.3295 162.417 94.8261 162.907C95.3227 163.397 95.6623 164.024 95.8019 164.707C95.9414 165.391 95.8745 166.1 95.6097 166.746C95.3448 167.391 94.894 167.943 94.3146 168.332C93.7352 168.721 93.0533 168.928 92.3556 168.928C91.8932 168.945 91.4322 168.867 91.001 168.699C90.5698 168.531 90.1775 168.276 89.8482 167.951C89.5188 167.626 89.2593 167.237 89.0856 166.808C88.9119 166.379 88.8276 165.92 88.838 165.457V165.457ZM92.3556 167.373C92.7371 167.386 93.1137 167.285 93.4373 167.082C93.7608 166.88 94.0164 166.585 94.1714 166.236C94.3265 165.887 94.3738 165.5 94.3073 165.124C94.2409 164.749 94.0637 164.401 93.7984 164.127C93.5332 163.852 93.1921 163.663 92.8187 163.584C92.4454 163.504 92.0568 163.538 91.7029 163.681C91.349 163.824 91.0458 164.07 90.8322 164.386C90.6187 164.702 90.5045 165.075 90.5042 165.457C90.4955 165.705 90.537 165.953 90.6261 166.185C90.7153 166.417 90.8503 166.629 91.023 166.808C91.1958 166.987 91.4029 167.129 91.6318 167.226C91.8608 167.323 92.1069 167.373 92.3556 167.373V167.373Z" fill="white"/>
<path d="M102.529 168.799V167.873C102.292 168.213 101.972 168.486 101.599 168.666C101.226 168.846 100.813 168.927 100.4 168.9C99.5339 168.823 98.7284 168.424 98.1418 167.783C97.5551 167.141 97.2298 166.303 97.2298 165.434C97.2298 164.564 97.5551 163.727 98.1418 163.085C98.7284 162.443 99.5339 162.045 100.4 161.967C100.813 161.939 101.227 162.019 101.6 162.199C101.974 162.379 102.294 162.653 102.529 162.995V162.995V159.727H104.241V168.845L102.529 168.799ZM100.677 167.382C101.061 167.397 101.44 167.297 101.767 167.094C102.093 166.892 102.351 166.597 102.508 166.246C102.665 165.896 102.714 165.507 102.649 165.129C102.583 164.751 102.406 164.401 102.139 164.124C101.873 163.847 101.531 163.656 101.155 163.576C100.78 163.495 100.389 163.529 100.033 163.672C99.6767 163.815 99.3715 164.062 99.1565 164.38C98.9414 164.698 98.8264 165.073 98.8261 165.457C98.816 165.709 98.8574 165.96 98.9476 166.195C99.0379 166.43 99.1752 166.644 99.3511 166.824C99.527 167.005 99.7378 167.147 99.9706 167.243C100.203 167.339 100.453 167.386 100.705 167.382H100.677Z" fill="white"/>
<path d="M109.416 162.124H111.129V163.05C111.367 162.71 111.689 162.437 112.063 162.257C112.438 162.077 112.852 161.996 113.267 162.023C114.133 162.1 114.938 162.499 115.525 163.141C116.112 163.782 116.437 164.62 116.437 165.489C116.437 166.359 116.112 167.197 115.525 167.838C114.938 168.48 114.133 168.878 113.267 168.956C112.853 168.98 112.439 168.899 112.065 168.719C111.691 168.539 111.368 168.267 111.129 167.928V167.928V171.261H109.416V162.124ZM112.952 167.382C113.336 167.397 113.715 167.297 114.041 167.094C114.367 166.892 114.626 166.597 114.783 166.247C114.94 165.896 114.989 165.507 114.923 165.129C114.857 164.751 114.68 164.401 114.414 164.124C114.148 163.847 113.805 163.656 113.43 163.576C113.055 163.495 112.664 163.529 112.307 163.672C111.951 163.815 111.646 164.062 111.431 164.38C111.216 164.698 111.101 165.073 111.101 165.457C111.091 165.705 111.131 165.953 111.219 166.186C111.307 166.419 111.441 166.631 111.613 166.811C111.785 166.991 111.991 167.134 112.22 167.232C112.448 167.33 112.694 167.381 112.943 167.382H112.952Z" fill="white"/>
<path d="M118.09 162.124H119.811V163.855C119.875 163.345 120.122 162.875 120.507 162.534C120.893 162.193 121.389 162.005 121.903 162.004C122.056 162.001 122.208 162.016 122.357 162.05V163.698C122.212 163.685 122.067 163.685 121.922 163.698C121.631 163.686 121.341 163.737 121.072 163.846C120.802 163.956 120.559 164.122 120.359 164.333C120.159 164.545 120.007 164.797 119.912 165.072C119.818 165.347 119.783 165.639 119.811 165.929V168.845H118.09V162.124Z" fill="white"/>
<path d="M123.422 165.457C123.412 164.759 123.611 164.075 123.992 163.49C124.373 162.906 124.919 162.448 125.561 162.174C126.203 161.901 126.911 161.825 127.597 161.955C128.282 162.086 128.913 162.417 129.41 162.907C129.906 163.397 130.246 164.024 130.385 164.707C130.525 165.391 130.458 166.1 130.193 166.746C129.928 167.391 129.478 167.943 128.898 168.332C128.319 168.721 127.637 168.928 126.939 168.928C126.476 168.946 126.015 168.869 125.583 168.701C125.151 168.534 124.758 168.28 124.429 167.954C124.099 167.629 123.84 167.239 123.666 166.81C123.493 166.38 123.41 165.92 123.422 165.457V165.457ZM126.939 167.373C127.321 167.386 127.697 167.285 128.021 167.082C128.344 166.88 128.6 166.585 128.755 166.236C128.91 165.887 128.957 165.5 128.891 165.124C128.824 164.749 128.647 164.401 128.382 164.127C128.117 163.852 127.776 163.663 127.402 163.584C127.029 163.504 126.64 163.538 126.286 163.681C125.933 163.824 125.629 164.07 125.416 164.386C125.202 164.702 125.088 165.075 125.088 165.457C125.072 165.707 125.109 165.958 125.196 166.193C125.282 166.428 125.417 166.643 125.591 166.823C125.765 167.003 125.975 167.145 126.207 167.24C126.439 167.335 126.689 167.38 126.939 167.373V167.373Z" fill="white"/>
<path d="M137.103 168.799V167.873C136.864 168.212 136.542 168.485 136.168 168.665C135.793 168.845 135.379 168.926 134.965 168.9C134.099 168.823 133.293 168.424 132.707 167.783C132.12 167.141 131.795 166.303 131.795 165.434C131.795 164.564 132.12 163.727 132.707 163.085C133.293 162.443 134.099 162.045 134.965 161.967C135.38 161.939 135.795 162.019 136.169 162.199C136.544 162.379 136.866 162.653 137.103 162.995V162.995V159.727H138.825V168.845L137.103 168.799ZM135.252 167.382C135.635 167.397 136.015 167.297 136.341 167.094C136.667 166.892 136.925 166.597 137.083 166.246C137.24 165.896 137.289 165.507 137.223 165.129C137.157 164.751 136.98 164.401 136.714 164.124C136.448 163.847 136.105 163.656 135.73 163.576C135.354 163.495 134.963 163.529 134.607 163.672C134.251 163.815 133.946 164.062 133.731 164.38C133.516 164.698 133.401 165.073 133.4 165.457C133.39 165.709 133.432 165.96 133.522 166.195C133.612 166.43 133.749 166.644 133.925 166.824C134.101 167.005 134.312 167.147 134.545 167.243C134.778 167.339 135.028 167.386 135.28 167.382H135.252Z" fill="white"/>
<path d="M147.027 168.799H145.305V167.873C145.086 168.212 144.781 168.487 144.422 168.67C144.063 168.854 143.662 168.94 143.259 168.919C141.889 168.919 140.732 168.067 140.732 166.04V162.115H142.454V165.753C142.454 166.734 142.981 167.373 143.879 167.373C144.084 167.375 144.287 167.333 144.474 167.249C144.661 167.166 144.827 167.043 144.963 166.889C145.098 166.736 145.199 166.555 145.258 166.359C145.317 166.162 145.333 165.956 145.305 165.753V162.115H147.027V168.799Z" fill="white"/>
<path d="M148.61 165.457C148.599 164.995 148.683 164.535 148.857 164.107C149.031 163.678 149.291 163.29 149.62 162.966C149.95 162.641 150.342 162.388 150.773 162.221C151.204 162.054 151.665 161.977 152.127 161.995C152.71 161.983 153.286 162.129 153.793 162.417C154.299 162.706 154.719 163.126 155.006 163.633L153.747 164.448C153.585 164.167 153.351 163.933 153.07 163.771C152.789 163.608 152.47 163.523 152.146 163.522C151.662 163.556 151.208 163.772 150.878 164.127C150.547 164.482 150.363 164.949 150.363 165.434C150.363 165.919 150.547 166.386 150.878 166.741C151.208 167.096 151.662 167.312 152.146 167.345C152.47 167.345 152.789 167.259 153.07 167.097C153.351 166.934 153.585 166.701 153.747 166.42L155.006 167.225C154.718 167.732 154.298 168.153 153.792 168.443C153.286 168.732 152.711 168.881 152.127 168.873C151.669 168.89 151.212 168.815 150.784 168.651C150.356 168.486 149.966 168.237 149.637 167.918C149.308 167.598 149.048 167.216 148.871 166.793C148.694 166.37 148.605 165.915 148.61 165.457V165.457Z" fill="white"/>
<path d="M157.228 166.947V163.494H156.302V162.124H157.228V160.412H158.959V162.124H160.329V163.494H158.959V166.67C158.959 167.012 159.153 167.345 159.718 167.345C159.931 167.34 160.143 167.306 160.347 167.243V168.567C160.003 168.796 159.593 168.904 159.181 168.873C158.919 168.905 158.653 168.878 158.404 168.793C158.154 168.708 157.926 168.567 157.739 168.382C157.551 168.197 157.407 167.972 157.319 167.723C157.23 167.475 157.199 167.209 157.228 166.947V166.947Z" fill="white"/>
<path d="M161.986 159.727H163.707V161.245H161.986V159.727ZM161.986 162.171H163.707V168.845H161.986V162.171Z" fill="white"/>
<path d="M165.3 165.457C165.29 164.759 165.489 164.075 165.87 163.49C166.251 162.906 166.797 162.448 167.439 162.174C168.081 161.901 168.789 161.825 169.475 161.955C170.16 162.086 170.791 162.417 171.288 162.907C171.784 163.397 172.124 164.024 172.263 164.707C172.403 165.391 172.336 166.1 172.071 166.746C171.806 167.391 171.356 167.943 170.776 168.332C170.197 168.721 169.515 168.928 168.817 168.928C168.354 168.946 167.893 168.869 167.461 168.701C167.029 168.534 166.636 168.28 166.307 167.954C165.977 167.629 165.718 167.239 165.544 166.81C165.371 166.38 165.288 165.92 165.3 165.457V165.457ZM168.817 167.373C169.199 167.386 169.575 167.285 169.899 167.082C170.222 166.88 170.478 166.585 170.633 166.236C170.788 165.887 170.835 165.5 170.769 165.124C170.702 164.749 170.525 164.401 170.26 164.127C169.995 163.852 169.654 163.663 169.28 163.584C168.907 163.504 168.518 163.538 168.164 163.681C167.811 163.824 167.507 164.07 167.294 164.386C167.08 164.702 166.966 165.075 166.966 165.457C166.957 165.705 166.999 165.953 167.088 166.185C167.177 166.417 167.312 166.629 167.485 166.808C167.657 166.987 167.864 167.129 168.093 167.226C168.322 167.323 168.568 167.373 168.817 167.373V167.373Z" fill="white"/>
<path d="M173.927 162.124H175.649V163.05C175.867 162.713 176.17 162.44 176.528 162.258C176.885 162.076 177.285 161.991 177.685 162.013C179.065 162.013 180.212 162.856 180.212 164.883V168.817H178.5V165.17C178.5 164.189 177.972 163.55 177.074 163.55C176.87 163.548 176.667 163.59 176.48 163.674C176.293 163.757 176.126 163.88 175.991 164.034C175.856 164.187 175.755 164.368 175.696 164.565C175.637 164.761 175.621 164.967 175.649 165.17V168.817H173.927V162.124Z" fill="white"/>
<path d="M46.2009 219.563C45.2638 219.572 44.3367 219.37 43.4887 218.971C42.6793 218.594 41.9645 218.04 41.3966 217.351C40.8038 216.63 40.3516 215.804 40.0636 214.916C39.7499 213.938 39.5937 212.916 39.6008 211.889V211.889C39.5821 210.836 39.745 209.787 40.0822 208.788C40.3748 207.893 40.8333 207.061 41.4337 206.335C42.0073 205.647 42.7203 205.089 43.5257 204.697C44.3757 204.309 45.2991 204.109 46.2333 204.109C47.1676 204.109 48.0909 204.309 48.941 204.697C49.7461 205.077 50.4573 205.63 51.0238 206.317C51.6271 207.046 52.0829 207.885 52.366 208.788C52.6949 209.763 52.8576 210.786 52.8474 211.815V211.815C52.8569 212.841 52.6942 213.861 52.366 214.833C52.0756 215.729 51.6169 216.562 51.0145 217.286C50.4457 217.991 49.7323 218.565 48.9225 218.971C48.0726 219.374 47.1415 219.577 46.2009 219.563ZM46.2009 216.601C46.6717 216.606 47.1352 216.484 47.5432 216.249C47.9513 216.002 48.2991 215.667 48.5614 215.268C48.8636 214.813 49.083 214.309 49.2094 213.778C49.3673 213.173 49.4451 212.551 49.4408 211.926V211.926C49.4422 211.301 49.3613 210.679 49.2002 210.075C49.0612 209.542 48.836 209.036 48.5337 208.575C48.262 208.17 47.905 207.829 47.4876 207.576C47.087 207.329 46.625 207.201 46.1547 207.205C45.6838 207.2 45.2201 207.321 44.8124 207.557C44.4071 207.805 44.0624 208.14 43.8034 208.538C43.5093 208.997 43.2905 209.501 43.1554 210.029C42.9943 210.633 42.9134 211.255 42.9148 211.88C42.9145 212.505 42.9954 213.127 43.1554 213.731C43.2896 214.267 43.5117 214.777 43.8127 215.24C44.0814 215.642 44.4353 215.981 44.8494 216.231C45.2702 216.486 45.7554 216.614 46.2472 216.601H46.2009Z" fill="#212E5A"/>
<path d="M58.3644 219.563C57.2857 219.585 56.2141 219.383 55.2171 218.971C54.3181 218.571 53.4946 218.02 52.7825 217.342L54.8005 214.981C55.3026 215.454 55.8625 215.861 56.4668 216.194C57.0431 216.476 57.6765 216.621 58.3181 216.62C58.9787 216.659 59.6327 216.47 60.1695 216.083C60.3965 215.897 60.5762 215.66 60.6937 215.391C60.8112 215.122 60.8631 214.83 60.8452 214.537C60.8577 214.245 60.7964 213.954 60.6669 213.692C60.5375 213.43 60.3441 213.205 60.1047 213.037C59.5443 212.656 58.8749 212.467 58.1978 212.5C57.7518 212.499 57.3074 212.552 56.8741 212.658C56.4754 212.759 56.0854 212.893 55.7077 213.056L53.81 211.797L54.2359 204.447H63.4187V207.326H57.0222L56.8555 209.918C57.1518 209.853 57.448 209.788 57.7812 209.742C58.8179 209.596 59.8735 209.666 60.8823 209.945C61.4924 210.114 62.0623 210.403 62.5578 210.797C63.0465 211.188 63.4312 211.694 63.6778 212.269C63.9466 212.926 64.0758 213.632 64.0574 214.342V214.389C64.0717 215.122 63.933 215.85 63.6501 216.527C63.3928 217.141 63.0041 217.69 62.5115 218.138C61.9869 218.601 61.3724 218.951 60.7064 219.165C59.9533 219.427 59.1618 219.562 58.3644 219.563Z" fill="#212E5A"/>
<path d="M72.7403 214.981C72.317 214.984 71.8977 214.899 71.5092 214.731C71.1443 214.575 70.8139 214.349 70.5372 214.065C70.2424 213.782 70.0092 213.442 69.8522 213.065C69.6843 212.673 69.5992 212.251 69.6023 211.825C69.5992 211.398 69.6843 210.976 69.8522 210.584C70.0092 210.207 70.2424 209.867 70.5372 209.584C70.8248 209.296 71.1681 209.069 71.5462 208.918C71.9347 208.75 72.3541 208.665 72.7774 208.668C73.2036 208.665 73.626 208.75 74.0178 208.918C74.3919 209.072 74.7317 209.298 75.0175 209.584C75.3035 209.874 75.5354 210.213 75.7025 210.584C75.8705 210.976 75.9555 211.398 75.9525 211.825V211.825C75.9555 212.251 75.8705 212.673 75.7025 213.065C75.5354 213.436 75.3035 213.775 75.0175 214.065C74.7317 214.351 74.3919 214.577 74.0178 214.731C73.6145 214.904 73.1791 214.989 72.7403 214.981V214.981Z" fill="#212E5A"/>
<path d="M87.9493 219.563C87.0122 219.572 86.085 219.37 85.237 218.971C84.4291 218.591 83.7148 218.038 83.145 217.351C82.5521 216.63 82.0999 215.804 81.812 214.916C81.4983 213.938 81.3421 212.916 81.3492 211.889V211.889C81.3305 210.836 81.4933 209.787 81.8305 208.788C82.1231 207.893 82.5816 207.061 83.182 206.335C83.7556 205.647 84.4687 205.089 85.2741 204.697C86.1241 204.309 87.0475 204.109 87.9817 204.109C88.9159 204.109 89.8393 204.309 90.6893 204.697C91.4944 205.077 92.2056 205.63 92.7721 206.317C93.3713 207.035 93.8269 207.861 94.1144 208.751C94.4433 209.726 94.606 210.749 94.5957 211.778C94.6053 212.804 94.4426 213.824 94.1144 214.796C93.824 215.692 93.3653 216.525 92.7629 217.249C92.1979 217.967 91.4842 218.555 90.6708 218.971C89.8209 219.374 88.8898 219.577 87.9493 219.563V219.563ZM87.9493 216.601C88.4201 216.606 88.8835 216.484 89.2915 216.249C89.6996 216.002 90.0475 215.667 90.3098 215.268C90.612 214.813 90.8314 214.309 90.9578 213.778C91.1157 213.173 91.1935 212.551 91.1892 211.926V211.926C91.1906 211.301 91.1097 210.679 90.9485 210.075C90.8095 209.542 90.5844 209.036 90.282 208.575C90.0103 208.17 89.6533 207.829 89.236 207.576C88.8354 207.329 88.3733 207.201 87.903 207.205C87.4321 207.2 86.9684 207.321 86.5608 207.557C86.1555 207.805 85.8107 208.14 85.5518 208.538C85.2577 208.997 85.0389 209.501 84.9038 210.029C84.7426 210.633 84.6617 211.255 84.6631 211.88V211.88C84.6629 212.505 84.7438 213.127 84.9038 213.731C85.038 214.267 85.2601 214.777 85.561 215.24C85.8297 215.642 86.1837 215.981 86.5978 216.231C87.0185 216.486 87.5038 216.614 87.9956 216.601H87.9493Z" fill="#212E5A"/>
<path d="M100.326 219.517C99.553 219.524 98.7832 219.421 98.0393 219.212C97.3721 219.015 96.7452 218.702 96.1879 218.286C95.6907 217.931 95.2795 217.469 94.9845 216.934C94.6916 216.392 94.5419 215.783 94.5495 215.166V215.166C94.5109 214.384 94.7216 213.609 95.1512 212.954C95.6256 212.346 96.2467 211.868 96.9563 211.565C96.4058 211.238 95.9322 210.796 95.5677 210.269C95.2076 209.68 95.0304 208.997 95.0586 208.307V208.307C95.0545 207.751 95.1814 207.203 95.4289 206.705C95.6895 206.204 96.0521 205.763 96.4934 205.41C96.9899 205.024 97.5509 204.729 98.1504 204.539C99.5464 204.107 101.04 204.107 102.436 204.539C103.037 204.728 103.601 205.019 104.103 205.4C104.55 205.747 104.914 206.19 105.167 206.696C105.414 207.197 105.54 207.749 105.537 208.307C105.57 208.998 105.393 209.682 105.028 210.269C104.664 210.796 104.19 211.238 103.64 211.565C104.318 211.903 104.919 212.375 105.408 212.954C105.858 213.566 106.084 214.315 106.046 215.074V215.12C106.062 215.764 105.912 216.401 105.611 216.971C105.322 217.515 104.91 217.984 104.408 218.341C103.848 218.741 103.221 219.036 102.557 219.212C101.83 219.411 101.08 219.513 100.326 219.517ZM100.326 216.814C100.985 216.846 101.637 216.657 102.177 216.277C102.389 216.127 102.562 215.929 102.681 215.699C102.8 215.468 102.862 215.213 102.862 214.953V214.953C102.872 214.683 102.81 214.415 102.681 214.178C102.553 213.94 102.363 213.741 102.131 213.602C101.565 213.287 100.927 213.121 100.279 213.121C99.6315 213.121 98.9942 213.287 98.4281 213.602C98.1994 213.744 98.0121 213.943 97.8853 214.181C97.7585 214.418 97.6967 214.684 97.7061 214.953V214.953C97.7063 215.21 97.7678 215.464 97.8853 215.692C98.0028 215.921 98.173 216.118 98.3818 216.268C98.9468 216.67 99.634 216.863 100.326 216.814V216.814ZM100.326 210.482C100.89 210.516 101.446 210.334 101.881 209.973C102.067 209.813 102.215 209.614 102.314 209.39C102.414 209.166 102.462 208.922 102.455 208.677V208.677C102.453 208.447 102.403 208.22 102.307 208.011C102.211 207.802 102.072 207.616 101.899 207.465C101.467 207.084 100.901 206.891 100.326 206.928C99.7525 206.892 99.1878 207.081 98.7521 207.455C98.579 207.605 98.4398 207.789 98.344 207.997C98.2482 208.204 98.198 208.43 98.1967 208.659V208.659C98.1922 208.906 98.2412 209.152 98.3402 209.379C98.4393 209.605 98.5861 209.808 98.7706 209.973C99.2053 210.335 99.7615 210.517 100.326 210.482V210.482Z" fill="#212E5A"/>
<path d="M114.341 219.517C113.326 219.55 112.319 219.324 111.415 218.86C110.674 218.455 110.012 217.918 109.462 217.277L111.527 214.981C111.906 215.403 112.342 215.771 112.823 216.073C113.253 216.341 113.751 216.479 114.257 216.471C114.53 216.485 114.803 216.44 115.057 216.34C115.311 216.239 115.54 216.085 115.729 215.888C116.12 215.354 116.307 214.697 116.257 214.037V204.391H119.599V214.148C119.615 214.938 119.493 215.724 119.238 216.471C119.013 217.093 118.656 217.658 118.191 218.128C117.72 218.598 117.146 218.952 116.516 219.165C115.816 219.404 115.08 219.523 114.341 219.517Z" fill="#212E5A"/>
<path d="M127.06 219.535C126.173 219.631 125.277 219.524 124.437 219.223C123.598 218.922 122.838 218.435 122.214 217.798C121.59 217.161 121.119 216.391 120.836 215.545C120.553 214.7 120.465 213.801 120.58 212.917V204.391H123.857V212.824C123.778 213.824 124.082 214.817 124.708 215.601C125.013 215.917 125.383 216.164 125.792 216.323C126.201 216.483 126.64 216.553 127.078 216.527C127.514 216.547 127.95 216.474 128.357 216.315C128.763 216.155 129.132 215.912 129.439 215.601C130.057 214.849 130.362 213.888 130.29 212.917V204.373H133.567V212.787C133.589 213.793 133.436 214.796 133.114 215.749C132.839 216.54 132.39 217.258 131.799 217.851C131.215 218.419 130.509 218.846 129.735 219.1C128.873 219.39 127.969 219.537 127.06 219.535V219.535Z" fill="#212E5A"/>
<path d="M134.817 204.391H137.835L144.823 213.574V204.391H148.063V219.304H145.286L138.066 209.825V219.304H134.835L134.817 204.391Z" fill="#212E5A"/>
<path d="M149.507 204.391H160.736V207.307H152.747V210.334H159.773V213.25H152.747V216.388H160.838V219.304H149.507V204.391Z" fill="#212E5A"/>
<path d="M165.142 218.045L170.557 213.269C172.835 211.223 173.668 210.075 173.668 208.585C173.668 208.197 173.59 207.813 173.437 207.456C173.284 207.099 173.06 206.778 172.778 206.511C172.496 206.244 172.163 206.037 171.799 205.904C171.434 205.77 171.047 205.712 170.659 205.734C168.956 205.734 167.882 206.659 166.66 208.288L165.42 207.363C166.762 205.363 168.197 204.188 170.789 204.188C173.381 204.188 175.417 205.974 175.417 208.409C175.417 210.584 174.269 211.926 171.65 214.203L167.669 217.74H175.565V219.276H165.142V218.045Z" fill="#212E5A"/>
<path d="M176.065 211.889C176.065 207.714 178.555 204.178 182.388 204.178C186.22 204.178 188.655 207.668 188.655 211.843C188.655 216.018 186.183 219.554 182.351 219.554C178.518 219.554 176.065 216.064 176.065 211.889ZM186.905 211.889C186.905 208.631 185.118 205.706 182.351 205.706C179.583 205.706 177.806 208.566 177.806 211.843C177.806 215.101 179.601 218.017 182.434 218.017C185.267 218.017 186.914 215.148 186.914 211.889H186.905Z" fill="#212E5A"/>
<path d="M188.664 218.045L194.07 213.269C196.347 211.223 197.18 210.075 197.18 208.585C197.182 208.197 197.105 207.813 196.953 207.457C196.801 207.1 196.577 206.778 196.296 206.511C196.015 206.244 195.683 206.037 195.319 205.904C194.955 205.77 194.568 205.712 194.181 205.734C192.478 205.734 191.404 206.659 190.173 208.288L188.942 207.363C190.284 205.363 191.719 204.188 194.301 204.188C196.884 204.188 198.93 205.974 198.93 208.409C198.93 210.584 197.782 211.926 195.162 214.203L191.172 217.74H199.078V219.276H188.664V218.045Z" fill="#212E5A"/>
<path d="M199.328 216.897L200.55 215.814C201.052 216.499 201.708 217.056 202.466 217.44C203.223 217.825 204.06 218.026 204.91 218.027C205.317 218.063 205.727 218.016 206.115 217.889C206.503 217.761 206.861 217.555 207.166 217.283C207.471 217.012 207.718 216.68 207.89 216.31C208.062 215.939 208.157 215.538 208.168 215.129V215.083C208.168 213.232 206.446 212.213 203.993 212.213H203.068L202.725 211.214L207.437 205.909H200.133V204.391H209.649V205.632L204.965 210.825C207.566 211.038 209.89 212.297 209.89 215.018C209.89 217.684 207.668 219.517 204.9 219.517C203.831 219.549 202.769 219.329 201.801 218.874C200.832 218.418 199.985 217.741 199.328 216.897V216.897Z" fill="#212E5A"/>
<path d="M25.9562 232.763L26.669 231.912C27.2472 232.467 28.015 232.781 28.8165 232.791C29.5478 232.791 30.0199 232.449 30.0199 231.94C30.0199 231.458 29.7422 231.199 28.4833 230.903C27.0392 230.551 26.2246 230.125 26.2246 228.876C26.2379 228.591 26.3096 228.313 26.4352 228.057C26.5608 227.802 26.7377 227.575 26.9548 227.391C27.1719 227.207 27.4246 227.069 27.6971 226.987C27.9696 226.905 28.2562 226.88 28.5388 226.913C29.4357 226.889 30.3107 227.192 31.0012 227.765L30.3624 228.69C29.8379 228.263 29.1875 228.019 28.5111 227.996C27.8168 227.996 27.4095 228.357 27.4095 228.802C27.4095 229.32 27.715 229.561 29.0295 229.866C30.3439 230.172 31.1956 230.727 31.1956 231.856C31.1956 233.124 30.1958 233.874 28.7795 233.874C27.7322 233.872 26.7242 233.476 25.9562 232.763V232.763Z" fill="#212E5A"/>
<path d="M33.8986 226.922H35.0002L37.9901 233.782H36.7312L36.0369 232.143H32.8341L32.1398 233.782H30.9179L33.8986 226.922ZM35.6019 231.06L34.4355 228.348L33.2691 231.06H35.6019Z" fill="#212E5A"/>
<path d="M38.1382 226.969H43.2295V228.061H39.3694V229.912H42.7667V231.005H39.3416V233.782H38.1382V226.969Z" fill="#212E5A"/>
<path d="M43.5627 226.969H48.5892V228.033H44.7569V229.801H48.1541V230.866H44.7569V232.717H48.6355V233.782H43.5627V226.969Z" fill="#212E5A"/>
<path d="M54.8005 226.969L52.44 230.283L54.9116 233.782H53.5138L51.718 231.199L49.9314 233.782H48.5707L51.0237 230.329L48.6632 226.996H50.0703L51.755 229.459L53.449 226.996L54.8005 226.969Z" fill="#212E5A"/>
<path d="M57.1147 226.969H62.1412V228.033H58.2996V229.801H61.7061V230.866H58.2996V232.717H62.206V233.782H57.1147V226.969Z" fill="#212E5A"/>
<path d="M68.3711 226.969L66.0013 230.283L68.4636 233.782H67.0566L65.27 231.199L63.4834 233.782H62.1227L64.5665 230.329L62.206 226.969H63.613L65.2978 229.431L66.9918 226.969H68.3711Z" fill="#212E5A"/>
<path d="M68.6858 226.969H69.8799V229.792H73.1106V226.969H74.3047V233.782H73.1476V230.921H69.917V233.782H68.6858V226.969Z" fill="#212E5A"/>
<path d="M75.1656 226.969H76.3597V233.782H75.1656V226.969Z" fill="#212E5A"/>
<path d="M77.2206 226.969H80.2569C80.9057 226.926 81.5449 227.142 82.0342 227.57C82.1823 227.718 82.2988 227.894 82.3768 228.089C82.4548 228.283 82.4925 228.491 82.4878 228.7C82.4989 229.014 82.417 229.325 82.2524 229.594C82.0877 229.862 81.8476 230.076 81.5621 230.209C81.9444 230.282 82.2888 230.487 82.5357 230.788C82.7826 231.089 82.9163 231.467 82.9136 231.856C82.9136 233.069 81.9139 233.708 80.405 233.708H77.2206V226.969ZM81.2937 228.894C81.2937 228.357 80.8678 228.024 80.0995 228.024H78.387V229.875H80.0162C80.7845 229.875 81.2937 229.579 81.2937 228.95V228.894ZM80.2754 230.838H78.424V232.689H80.405C81.2196 232.689 81.7102 232.365 81.7102 231.764C81.6454 231.181 81.2196 230.838 80.2754 230.838V230.838Z" fill="#212E5A"/>
<path d="M83.3116 226.969H84.4965V233.782H83.3116V226.969Z" fill="#212E5A"/>
<path d="M87.0051 228.08H84.8575V226.969H90.4117V228.08H88.2085V233.782H87.0051V228.08Z" fill="#212E5A"/>
<path d="M90.7172 226.969H91.9113V233.782H90.7172V226.969Z" fill="#212E5A"/>
<path d="M92.4482 230.385C92.4482 229.444 92.8217 228.542 93.4866 227.878C94.1515 227.213 95.0533 226.839 95.9936 226.839C96.9338 226.839 97.8356 227.213 98.5005 227.878C99.1654 228.542 99.5389 229.444 99.5389 230.385V230.385C99.5389 231.325 99.1654 232.227 98.5005 232.891C97.8356 233.556 96.9338 233.93 95.9936 233.93C95.0533 233.93 94.1515 233.556 93.4866 232.891C92.8217 232.227 92.4482 231.325 92.4482 230.385ZM98.2893 230.385C98.3017 230.073 98.2514 229.763 98.1413 229.471C98.0313 229.18 97.8638 228.913 97.6488 228.688C97.4337 228.463 97.1756 228.283 96.8896 228.159C96.6037 228.036 96.2958 227.971 95.9843 227.968C95.6748 227.969 95.3688 228.033 95.0845 228.155C94.8002 228.277 94.5435 228.456 94.33 228.68C94.1164 228.904 93.9503 229.169 93.8417 229.458C93.733 229.748 93.6841 230.057 93.6979 230.366V230.366C93.6867 230.676 93.738 230.985 93.8487 231.275C93.9594 231.565 94.1273 231.829 94.3423 232.053C94.5573 232.277 94.8151 232.455 95.1004 232.577C95.3857 232.699 95.6925 232.762 96.0028 232.764C96.313 232.768 96.6207 232.708 96.9071 232.589C97.1935 232.47 97.4525 232.294 97.6683 232.071C97.8842 231.848 98.0522 231.584 98.1622 231.294C98.2721 231.004 98.3217 230.694 98.3078 230.385H98.2893Z" fill="#212E5A"/>
<path d="M100.011 226.969H101.085L104.713 231.662V226.969H105.889V233.782H104.889L101.187 228.959V233.782H100.011V226.969Z" fill="#212E5A"/>
<path d="M108.629 226.969H111.267C112.86 226.969 113.85 227.894 113.85 229.237C113.85 230.764 112.628 231.551 111.138 231.551H109.786V233.782H108.592L108.629 226.969ZM111.212 230.496C112.137 230.496 112.674 229.996 112.674 229.292C112.674 228.505 112.1 228.089 111.212 228.089H109.823V230.523L111.212 230.496Z" fill="#212E5A"/>
<path d="M115.896 226.922H116.997L119.987 233.754H118.673L117.979 232.116H114.776L114.081 233.754H112.859L115.896 226.922ZM117.599 231.06L116.433 228.348L115.266 231.06H117.599Z" fill="#212E5A"/>
<path d="M120.135 226.969H123.162C123.877 226.937 124.577 227.182 125.116 227.654C125.302 227.848 125.448 228.077 125.545 228.328C125.642 228.579 125.688 228.847 125.68 229.116C125.693 229.593 125.539 230.059 125.245 230.434C124.951 230.809 124.535 231.07 124.07 231.171L125.921 233.735H124.505L122.838 231.375H121.348V233.782H120.154L120.135 226.969ZM123.07 230.338C123.931 230.338 124.468 229.885 124.468 229.2C124.468 228.468 123.949 228.08 123.061 228.08H121.33V230.357L123.07 230.338Z" fill="#212E5A"/>
<path d="M126.171 226.969H127.365V230.385L130.586 226.969H132.068L129.235 229.885L132.188 233.782H130.707L128.393 230.727L127.337 231.819V233.782H126.171V226.969Z" fill="#212E5A"/>
<path d="M135.724 231.792C135.53 231.793 135.338 231.755 135.159 231.68C134.988 231.607 134.831 231.504 134.696 231.375C134.566 231.242 134.462 231.085 134.391 230.912C134.316 230.737 134.278 230.548 134.28 230.357V230.357C134.278 230.163 134.316 229.971 134.391 229.792C134.462 229.622 134.566 229.468 134.696 229.339C134.831 229.21 134.988 229.106 135.159 229.033C135.338 228.958 135.53 228.92 135.724 228.922C135.915 228.92 136.104 228.958 136.279 229.033C136.452 229.104 136.609 229.208 136.742 229.339C136.87 229.471 136.973 229.624 137.048 229.792C137.126 229.97 137.167 230.162 137.168 230.357V230.357C137.167 230.548 137.126 230.737 137.048 230.912C136.973 231.083 136.87 231.24 136.742 231.375C136.609 231.506 136.452 231.609 136.279 231.68C136.104 231.755 135.915 231.793 135.724 231.792Z" fill="#212E5A"/>
<path d="M142.25 226.922H143.666L146.573 233.754H145.018L144.398 232.236H141.528L140.889 233.782H139.371L142.25 226.922ZM143.814 230.912L142.889 228.718L141.963 230.912H143.814Z" fill="#212E5A"/>
<path d="M146.61 226.978H148.1V232.412H151.479V233.782H146.61V226.978Z" fill="#212E5A"/>
<path d="M154.895 233.874C154.401 233.879 153.91 233.788 153.451 233.606C153.03 233.444 152.647 233.196 152.329 232.877C152.01 232.558 151.761 232.175 151.599 231.754C151.427 231.309 151.339 230.835 151.34 230.357V230.357C151.339 229.89 151.43 229.427 151.609 228.996C151.779 228.58 152.031 228.203 152.349 227.885C152.669 227.561 153.05 227.303 153.469 227.126C153.921 226.937 154.406 226.843 154.895 226.848C155.174 226.845 155.453 226.866 155.728 226.913C155.961 226.951 156.19 227.01 156.413 227.089C156.623 227.167 156.825 227.266 157.015 227.385C157.209 227.5 157.392 227.634 157.561 227.783L156.635 228.913C156.514 228.81 156.387 228.715 156.256 228.626C156.127 228.542 155.99 228.471 155.848 228.413C155.704 228.346 155.552 228.299 155.395 228.274C155.219 228.254 155.042 228.254 154.867 228.274C154.605 228.272 154.345 228.329 154.108 228.441C153.874 228.551 153.664 228.705 153.488 228.894C153.309 229.092 153.168 229.321 153.071 229.57C152.97 229.829 152.919 230.106 152.923 230.384V230.384C152.918 230.678 152.968 230.97 153.071 231.245C153.164 231.498 153.307 231.729 153.492 231.925C153.676 232.12 153.898 232.277 154.145 232.384C154.407 232.489 154.687 232.543 154.969 232.541C155.469 232.556 155.961 232.414 156.376 232.134V231.162H154.876V229.866H157.82V232.81C157.448 233.127 157.029 233.386 156.58 233.578C156.044 233.791 155.471 233.891 154.895 233.874Z" fill="#212E5A"/>
<path d="M158.329 226.978H159.82V233.782H158.329V226.978Z" fill="#212E5A"/>
<path d="M160.542 226.978H165.642V228.302H162.013V229.681H165.207V231.005H162.013V232.43H165.716V233.782H160.56L160.542 226.978Z" fill="#212E5A"/>
<path d="M166.068 226.978H169.16C169.519 226.953 169.88 227.001 170.22 227.118C170.56 227.236 170.874 227.421 171.141 227.663C171.338 227.868 171.491 228.11 171.591 228.376C171.692 228.642 171.737 228.925 171.724 229.209C171.745 229.69 171.601 230.163 171.317 230.551C171.046 230.9 170.684 231.166 170.27 231.319L171.927 233.735H170.178L168.725 231.569H167.558V233.782H166.068V226.978ZM169.067 230.264C169.37 230.286 169.671 230.194 169.909 230.005C170.008 229.919 170.086 229.812 170.138 229.692C170.189 229.572 170.212 229.441 170.206 229.311V229.311C170.212 229.174 170.188 229.037 170.135 228.911C170.082 228.784 170.002 228.671 169.9 228.579C169.647 228.408 169.345 228.324 169.039 228.339H167.558V230.283L169.067 230.264Z" fill="#212E5A"/>
<path d="M174.519 233.847C174.002 233.849 173.489 233.761 173.001 233.587C172.497 233.407 172.034 233.127 171.641 232.764L172.52 231.708C172.803 231.945 173.114 232.147 173.446 232.31C173.784 232.46 174.15 232.536 174.519 232.532C174.771 232.545 175.021 232.488 175.241 232.365C175.322 232.316 175.388 232.246 175.433 232.164C175.479 232.081 175.502 231.988 175.501 231.893V231.893C175.502 231.804 175.483 231.715 175.445 231.634C175.397 231.549 175.327 231.479 175.241 231.431C175.11 231.352 174.97 231.286 174.825 231.236C174.64 231.171 174.408 231.107 174.131 231.033C173.817 230.957 173.508 230.864 173.205 230.755C172.95 230.661 172.709 230.53 172.492 230.366C172.298 230.219 172.145 230.025 172.048 229.801C171.927 229.537 171.87 229.249 171.881 228.959C171.879 228.669 171.939 228.382 172.057 228.117C172.174 227.872 172.341 227.654 172.548 227.478C172.762 227.288 173.014 227.145 173.288 227.061C173.587 226.962 173.899 226.912 174.214 226.913C174.68 226.909 175.143 226.984 175.584 227.135C175.999 227.284 176.387 227.499 176.732 227.774L175.954 228.903C175.665 228.706 175.354 228.542 175.029 228.413C174.771 228.302 174.494 228.239 174.214 228.228C173.986 228.212 173.758 228.271 173.566 228.394C173.497 228.44 173.441 228.502 173.403 228.575C173.364 228.647 173.344 228.728 173.344 228.811V228.811C173.343 228.91 173.366 229.008 173.409 229.098C173.464 229.192 173.544 229.269 173.64 229.32C173.785 229.396 173.937 229.458 174.094 229.505L174.816 229.709C175.133 229.782 175.443 229.884 175.741 230.014C175.987 230.114 176.215 230.251 176.417 230.422C176.597 230.572 176.74 230.762 176.834 230.977C176.939 231.216 176.99 231.475 176.982 231.736V231.736C176.991 232.055 176.928 232.371 176.797 232.662C176.681 232.918 176.506 233.143 176.287 233.319C176.056 233.507 175.788 233.645 175.501 233.726C175.181 233.815 174.851 233.855 174.519 233.847V233.847Z" fill="#212E5A"/>
<path d="M180.87 231.792C180.676 231.792 180.484 231.755 180.305 231.68C180.136 231.607 179.983 231.504 179.851 231.375C179.718 231.242 179.611 231.085 179.537 230.912C179.462 230.737 179.424 230.548 179.426 230.357V230.357C179.423 230.167 179.459 229.978 179.532 229.803C179.605 229.628 179.714 229.47 179.851 229.339C179.983 229.21 180.136 229.106 180.305 229.033C180.484 228.959 180.676 228.921 180.87 228.922C181.063 228.92 181.256 228.958 181.434 229.033C181.777 229.177 182.049 229.45 182.193 229.792C182.276 229.969 182.317 230.162 182.314 230.357V230.357C182.317 230.549 182.276 230.739 182.193 230.912C182.122 231.085 182.019 231.242 181.888 231.375C181.758 231.506 181.604 231.609 181.434 231.68C181.256 231.755 181.063 231.793 180.87 231.792V231.792Z" fill="#212E5A"/>
<path d="M187.535 226.922H188.636L191.626 233.754H190.367L189.673 232.116H186.47L185.776 233.754H184.554L187.535 226.922ZM189.238 231.06L188.099 228.348L186.933 231.06H189.238Z" fill="#212E5A"/>
<path d="M191.802 226.969H192.996V232.671H196.56V233.782H191.802V226.969Z" fill="#212E5A"/>
<path d="M196.153 230.385C196.145 229.923 196.23 229.464 196.404 229.035C196.577 228.607 196.834 228.218 197.16 227.89C197.487 227.563 197.875 227.305 198.303 227.131C198.731 226.956 199.19 226.87 199.652 226.876C200.607 226.83 201.542 227.163 202.253 227.802L201.503 228.728C201.006 228.25 200.341 227.988 199.652 227.996C199.349 228.008 199.052 228.08 198.778 228.207C198.503 228.334 198.256 228.514 198.052 228.737C197.847 228.96 197.688 229.221 197.585 229.505C197.481 229.789 197.435 230.091 197.449 230.394C197.427 230.707 197.47 231.022 197.577 231.318C197.683 231.613 197.851 231.883 198.067 232.111C198.284 232.338 198.546 232.518 198.837 232.638C199.127 232.759 199.439 232.817 199.754 232.81C200.34 232.817 200.913 232.639 201.392 232.301V231.005H199.661V229.968H202.549V232.856C201.763 233.539 200.758 233.917 199.717 233.921C199.244 233.949 198.77 233.876 198.327 233.709C197.884 233.542 197.481 233.283 197.144 232.949C196.808 232.615 196.546 232.214 196.375 231.772C196.204 231.331 196.128 230.858 196.153 230.385V230.385Z" fill="#212E5A"/>
<path d="M203.077 226.969H208.103V228.033H204.271V229.801H207.668V230.866H204.271V232.717H208.159V233.782H203.077V226.969Z" fill="#212E5A"/>
<path d="M208.603 226.969H211.621C212.339 226.934 213.042 227.18 213.583 227.654C213.954 228.049 214.154 228.575 214.139 229.116V229.116C214.152 229.593 213.998 230.059 213.704 230.434C213.41 230.809 212.994 231.07 212.528 231.171L214.379 233.735H212.963L211.297 231.375H209.806V233.782H208.622L208.603 226.969ZM211.538 230.338C212.389 230.338 212.926 229.885 212.926 229.2C212.926 228.468 212.408 228.08 211.528 228.08H209.788V230.357L211.538 230.338Z" fill="#212E5A"/>
<path d="M214.703 226.969H215.87V233.782H214.685L214.703 226.969Z" fill="#212E5A"/>
<path d="M219.137 226.922H220.239L223.275 233.782H222.016L221.322 232.143H218.119L217.416 233.782H216.203L219.137 226.922ZM220.841 231.06L219.665 228.348L218.508 231.06H220.841Z" fill="#212E5A"/>
</g>
<defs>
<clipPath id="clip0_15_9">
<rect width="249" height="247.723" fill="white"/>
</clipPath>
</defs>
</svg>
